# xmcd
#
# Track frame offsets:
#	150
#	19462
#	31087
#	46387
#	62225
#	78450
#	97075
#	108012
#	127287
#	146587
#	165025
#	181600
#
# Disc length: 2635 seconds
# Revision: 0
# Processed by: cddbd v1.5.2PL0 Copyright (c) Steve Scherf et al.
# Submitted via: dBpowerAMP V12.0
#
DISCID=980a490c
DTITLE=Englebert Hunperdinck - Stardust
DYEAR=1900
DGENRE=Country
TTITLE0=Long Ago And Far Away
TTITLE1=Stardust
TTITLE2=They Say It's Wonderful
TTITLE3=Harbour Lights
TTITLE4=It'll be around
TTITLE5=But Beautiful
TTITLE6=Moon lights becomes you
TTITLE7=Getting Sentimental about you
TTITLE8=In The Still Of The Night
TTITLE9=The More I See You
TTITLE10=Yours
TTITLE11=I'll Be Seeing You
EXTD=
EXTT0=
EXTT1=
EXTT2=
EXTT3=
EXTT4=
EXTT5=
EXTT6=
EXTT7=
EXTT8=
EXTT9=
EXTT10=
EXTT11=
PLAYORDER=
